<?xml version="1.0" standalone="no"?><!DOCTYPE svg PUBLIC "-//W3C//DTD SVG 1.1//EN" "http://www.w3.org/Graphics/SVG/1.1/DTD/svg11.dtd"><svg t="1643187429602" class="icon" viewBox="0 0 1024 1024" version="1.1" xmlns="http://www.w3.org/2000/svg" p-id="728" xmlns:xlink="http://www.w3.org/1999/xlink" width="200" height="200"><defs><style type="text/css"></style></defs><path d="M405.555 639.432h58.061v58.061h-58.061z" p-id="729"></path><path d="M308.786 862h58.061V606.192h290.306V862h58.061V548.132H308.786zM512 162c-104.031 0-196.575 50.02-254.915 127.251l44.538 37.373C349.237 262.049 425.797 220.061 512 220.061s162.758 41.988 210.377 106.561l44.538-37.371C708.571 212.02 616.026 162 512 162z" p-id="730"></path><path d="M648.052 408.343l44.6-37.425C652.206 314.777 586.325 278.122 512 278.122s-140.206 36.654-180.652 92.797l44.604 37.423c29.631-43.515 79.546-72.159 136.048-72.159s106.422 28.645 136.052 72.16z" p-id="731"></path><path d="M405.862 452.798l45.176 37.907C462 468.027 485.171 452.306 512 452.306s49.996 15.72 60.958 38.399l45.176-37.907c-22.335-35.131-61.51-58.554-106.134-58.554s-83.798 23.424-106.138 58.554z" p-id="732"></path></svg>